<svg data-v-423bf9ae="" xmlns="http://www.w3.org/2000/svg" viewBox="0 0 293.3427653860022 163" class="iconAbove"><!----><!----><!----><g data-v-423bf9ae="" id="b2a61bdb-1ecc-49f7-a0b1-dc66fda7427c" fill="black" transform="matrix(4.240283012390137,0,0,4.240283012390137,-4.621912479400635,76.92225646972656)"><path d="M7.18 7.11L8.58 7.11Q8.51 7.52 8.49 8.27Q8.48 9.02 8.48 10.08L8.48 10.08L8.48 13.57Q8.48 14.40 8.26 15.08Q8.04 15.76 7.59 16.25Q7.14 16.73 6.46 17.00Q5.78 17.26 4.85 17.26L4.85 17.26Q3.92 17.26 3.23 17.00Q2.54 16.73 2.09 16.25Q1.64 15.76 1.42 15.08Q1.20 14.40 1.20 13.57L1.20 13.57L1.20 10.08Q1.20 9.07 1.18 8.30Q1.16 7.52 1.09 7.11L1.09 7.11L2.50 7.11L2.50 13.26Q2.50 13.93 2.61 14.47Q2.73 15.00 3.00 15.38Q3.27 15.76 3.73 15.97Q4.18 16.17 4.85 16.17L4.85 16.17Q5.52 16.17 5.96 15.97Q6.41 15.76 6.68 15.38Q6.95 15.00 7.06 14.47Q7.18 13.93 7.18 13.26L7.18 13.26L7.18 7.11ZM12.17 17.09L10.90 17.09L10.90 12.89Q10.90 11.87 10.79 11.17Q10.68 10.47 10.56 10.12L10.56 10.12L11.79 10.12Q11.83 10.23 11.87 10.40Q11.92 10.58 11.95 10.77Q11.98 10.96 12.01 11.14L12.01 11.14L12.07 11.45Q12.31 11.09 12.60 10.82Q12.89 10.55 13.19 10.36Q13.49 10.17 13.77 10.08Q14.05 9.98 14.29 9.98L14.29 9.98Q14.72 9.98 15.02 10.17Q15.31 10.36 15.50 10.67Q15.69 10.99 15.77 11.41Q15.86 11.82 15.86 12.27L15.86 12.27L14.77 12.51Q14.77 12.26 14.72 12.02Q14.67 11.79 14.57 11.60Q14.48 11.42 14.33 11.32Q14.18 11.21 13.98 11.21L13.98 11.21Q13.76 11.21 13.49 11.38Q13.23 11.55 12.97 11.82Q12.71 12.09 12.50 12.43Q12.28 12.78 12.17 13.13L12.17 13.13L12.17 17.09ZM16.82 6.15L18.18 6.15L18.18 11.45Q18.42 11.14 18.70 10.87Q18.98 10.60 19.31 10.40Q19.63 10.21 20.01 10.09Q20.38 9.98 20.82 9.98L20.82 9.98Q21.33 9.98 21.77 10.23Q22.20 10.49 22.51 10.94Q22.83 11.40 23.00 12.02Q23.17 12.65 23.17 13.40L23.17 13.40Q23.17 14.28 22.94 14.99Q22.70 15.70 22.27 16.21Q21.84 16.71 21.23 16.99Q20.62 17.26 19.86 17.26L19.86 17.26Q19.44 17.26 19.05 17.20Q18.66 17.14 18.30 17.05Q17.93 16.96 17.59 16.85Q17.25 16.75 16.92 16.65L16.92 16.65L16.92 8.56Q16.92 8.12 16.91 7.68Q16.90 7.24 16.88 6.84Q16.86 6.44 16.82 6.15L16.82 6.15ZM18.18 13.09L18.18 15.83Q18.44 15.93 18.65 16.00Q18.85 16.07 19.05 16.12Q19.25 16.16 19.44 16.18Q19.64 16.20 19.86 16.20L19.86 16.20Q20.31 16.20 20.69 16.02Q21.08 15.83 21.35 15.50Q21.63 15.16 21.79 14.69Q21.94 14.21 21.94 13.64L21.94 13.64Q21.94 13.07 21.84 12.61Q21.74 12.15 21.54 11.84Q21.35 11.52 21.06 11.35Q20.77 11.18 20.41 11.18L20.41 11.18Q20.08 11.18 19.76 11.32Q19.44 11.46 19.15 11.71Q18.86 11.96 18.61 12.31Q18.35 12.67 18.18 13.09L18.18 13.09ZM29.33 12.07L29.33 11.20Q29.24 11.18 29.14 11.16Q29.04 11.14 28.90 11.12Q28.76 11.09 28.57 11.08Q28.38 11.07 28.13 11.07L28.13 11.07Q27.46 11.07 27.01 11.34Q26.56 11.61 26.30 12.06Q26.03 12.51 25.92 13.09Q25.81 13.67 25.81 14.29L25.81 14.29Q25.81 14.68 25.88 15.02Q25.96 15.35 26.10 15.59Q26.24 15.83 26.41 15.97Q26.59 16.10 26.80 16.10L26.80 16.10Q27.10 16.10 27.40 15.87Q27.71 15.63 27.99 15.27Q28.27 14.90 28.51 14.45Q28.76 13.99 28.94 13.55Q29.12 13.10 29.22 12.70Q29.33 12.30 29.33 12.07L29.33 12.07ZM31.04 17.09L29.84 17.09Q29.76 16.93 29.71 16.64Q29.65 16.35 29.61 16.03Q29.57 15.70 29.55 15.38Q29.53 15.06 29.53 14.83L29.53 14.83L29.53 14.29Q29.33 14.82 29.04 15.35Q28.76 15.88 28.39 16.30Q28.03 16.73 27.58 16.99Q27.13 17.26 26.59 17.26L26.59 17.26Q26.16 17.26 25.79 17.07Q25.41 16.88 25.13 16.50Q24.86 16.13 24.70 15.57Q24.54 15.01 24.54 14.29L24.54 14.29Q24.54 13.47 24.76 12.70Q24.98 11.92 25.43 11.32Q25.88 10.71 26.58 10.35Q27.28 9.98 28.23 9.98L28.23 9.98Q28.90 9.98 29.48 10.07Q30.07 10.15 30.59 10.29L30.59 10.29L30.59 13.47Q30.59 14.76 30.71 15.64Q30.84 16.52 31.04 17.09L31.04 17.09ZM38.86 17.09L37.60 17.09L37.60 13.33Q37.60 12.69 37.51 12.27Q37.43 11.85 37.26 11.61Q37.09 11.37 36.84 11.27Q36.58 11.18 36.23 11.18L36.23 11.18Q35.86 11.18 35.51 11.35Q35.16 11.53 34.86 11.80Q34.57 12.08 34.34 12.43Q34.12 12.78 34.01 13.13L34.01 13.13L34.01 17.09L32.74 17.09L32.74 12.89Q32.74 11.87 32.63 11.17Q32.52 10.47 32.40 10.12L32.40 10.12L33.63 10.12Q33.67 10.23 33.71 10.40Q33.76 10.58 33.79 10.77Q33.82 10.96 33.85 11.14L33.85 11.14L33.91 11.45Q34.56 10.67 35.22 10.33Q35.88 9.98 36.61 9.98L36.61 9.98Q37.70 9.98 38.28 10.69Q38.86 11.41 38.86 12.82L38.86 12.82L38.86 17.09ZM42.28 12.82L42.28 14.12Q42.28 14.62 42.28 15.07Q42.29 15.52 42.30 15.91Q42.31 16.29 42.33 16.59Q42.35 16.89 42.38 17.09L42.38 17.09L40.88 17.09Q40.95 16.68 40.97 15.90Q40.98 15.13 40.98 14.12L40.98 14.12L40.98 9.28Q40.98 8.80 40.97 8.38Q40.96 7.97 40.94 7.64Q40.92 7.31 40.88 7.11L40.88 7.11Q41.23 7.10 41.67 7.08L41.67 7.08Q42.03 7.06 42.54 7.05Q43.05 7.04 43.65 7.04L43.65 7.04Q44.45 7.04 45.11 7.20Q45.77 7.36 46.24 7.70Q46.71 8.04 46.97 8.57Q47.24 9.11 47.24 9.84L47.24 9.84Q47.24 10.47 47.04 10.94Q46.85 11.42 46.53 11.77Q46.21 12.11 45.81 12.34Q45.40 12.56 44.99 12.68L44.99 12.68Q45.19 12.96 45.49 13.37Q45.79 13.77 46.13 14.23Q46.46 14.68 46.81 15.15Q47.15 15.62 47.46 16.02Q47.76 16.41 47.98 16.70Q48.21 16.99 48.30 17.09L48.30 17.09L46.55 17.09L43.67 12.82L42.28 12.82ZM42.28 8.17L42.28 11.76L43.58 11.76Q44.74 11.76 45.34 11.28Q45.94 10.80 45.94 9.95L45.94 9.95Q45.94 9.51 45.80 9.17Q45.67 8.83 45.39 8.60Q45.10 8.37 44.66 8.25Q44.21 8.13 43.58 8.13L43.58 8.13Q43.22 8.13 42.89 8.15Q42.55 8.16 42.28 8.17L42.28 8.17ZM54.21 12.07L54.21 11.20Q54.13 11.18 54.02 11.16Q53.92 11.14 53.78 11.12Q53.64 11.09 53.45 11.08Q53.27 11.07 53.01 11.07L53.01 11.07Q52.34 11.07 51.90 11.34Q51.45 11.61 51.18 12.06Q50.91 12.51 50.80 13.09Q50.69 13.67 50.69 14.29L50.69 14.29Q50.69 14.68 50.77 15.02Q50.85 15.35 50.98 15.59Q51.12 15.83 51.30 15.97Q51.47 16.10 51.68 16.10L51.68 16.10Q51.98 16.10 52.28 15.87Q52.59 15.63 52.87 15.27Q53.15 14.90 53.40 14.45Q53.64 13.99 53.82 13.55Q54.00 13.10 54.11 12.70Q54.21 12.30 54.21 12.07L54.21 12.07ZM55.92 17.09L54.72 17.09Q54.65 16.93 54.59 16.64Q54.53 16.35 54.49 16.03Q54.46 15.70 54.43 15.38Q54.41 15.06 54.41 14.83L54.41 14.83L54.41 14.29Q54.21 14.82 53.93 15.35Q53.64 15.88 53.28 16.30Q52.91 16.73 52.46 16.99Q52.01 17.26 51.47 17.26L51.47 17.26Q51.04 17.26 50.67 17.07Q50.29 16.88 50.02 16.50Q49.74 16.13 49.58 15.57Q49.42 15.01 49.42 14.29L49.42 14.29Q49.42 13.47 49.64 12.70Q49.86 11.92 50.31 11.32Q50.76 10.71 51.46 10.35Q52.16 9.98 53.12 9.98L53.12 9.98Q53.78 9.98 54.37 10.07Q54.95 10.15 55.47 10.29L55.47 10.29L55.47 13.47Q55.47 14.76 55.60 15.64Q55.72 16.52 55.92 17.09L55.92 17.09ZM62.07 14.39L62.07 11.42Q61.91 11.35 61.72 11.30Q61.54 11.25 61.35 11.22Q61.15 11.18 60.97 11.16Q60.79 11.14 60.63 11.14L60.63 11.14Q60.07 11.14 59.68 11.37Q59.28 11.60 59.03 11.97Q58.78 12.35 58.67 12.82Q58.55 13.29 58.55 13.77L58.55 13.77Q58.55 14.41 58.65 14.83Q58.75 15.25 58.92 15.50Q59.10 15.75 59.33 15.86Q59.57 15.96 59.85 15.96L59.85 15.96Q60.11 15.96 60.40 15.86Q60.70 15.75 60.99 15.55Q61.29 15.35 61.57 15.06Q61.84 14.77 62.07 14.39L62.07 14.39ZM63.33 10.49L63.33 16.92Q63.33 17.82 63.07 18.46Q62.81 19.11 62.38 19.51Q61.95 19.92 61.41 20.11Q60.86 20.30 60.29 20.30L60.29 20.30Q59.64 20.30 58.99 20.08Q58.34 19.85 57.80 19.48L57.80 19.48L58.24 18.42Q58.73 18.77 59.22 18.99Q59.71 19.21 60.22 19.21L60.22 19.21Q60.49 19.21 60.81 19.11Q61.13 19.02 61.41 18.78Q61.69 18.55 61.88 18.15Q62.07 17.75 62.07 17.16L62.07 17.16L62.07 15.76Q61.80 16.09 61.51 16.35Q61.21 16.60 60.90 16.78Q60.60 16.95 60.30 17.04Q59.99 17.12 59.71 17.12L59.71 17.12Q59.24 17.12 58.80 16.96Q58.37 16.80 58.03 16.44Q57.69 16.08 57.49 15.50Q57.29 14.93 57.29 14.12L57.29 14.12Q57.29 13.33 57.49 12.58Q57.70 11.84 58.13 11.26Q58.56 10.68 59.23 10.33Q59.90 9.98 60.84 9.98L60.84 9.98Q61.15 9.98 61.47 10.02Q61.80 10.07 62.12 10.14Q62.44 10.22 62.75 10.31Q63.05 10.40 63.33 10.49L63.33 10.49ZM69.97 10.53L69.73 11.72Q69.56 11.62 69.34 11.51Q69.12 11.40 68.86 11.30Q68.61 11.20 68.31 11.14Q68.02 11.07 67.71 11.07L67.71 11.07Q67.33 11.07 67.08 11.16Q66.82 11.24 66.67 11.36Q66.51 11.49 66.45 11.65Q66.38 11.81 66.38 11.96L66.38 11.96Q66.38 12.14 66.43 12.28Q66.49 12.41 66.66 12.53Q66.83 12.65 67.16 12.76Q67.48 12.87 68.02 12.99L68.02 12.99Q68.48 13.09 68.89 13.25Q69.30 13.41 69.61 13.66Q69.92 13.90 70.10 14.25Q70.27 14.59 70.27 15.07L70.27 15.07Q70.27 15.54 70.07 15.93Q69.86 16.33 69.51 16.63Q69.15 16.93 68.67 17.09Q68.20 17.26 67.64 17.26L67.64 17.26Q67.22 17.26 66.84 17.20Q66.45 17.14 66.11 17.03Q65.78 16.92 65.50 16.78Q65.21 16.63 65.01 16.47L65.01 16.47L65.35 15.24Q65.58 15.45 65.87 15.62Q66.17 15.79 66.47 15.91Q66.78 16.04 67.09 16.10Q67.40 16.17 67.68 16.17L67.68 16.17Q67.98 16.17 68.23 16.09Q68.48 16.01 68.66 15.88Q68.84 15.76 68.94 15.59Q69.04 15.42 69.04 15.24L69.04 15.24Q69.04 15.05 68.96 14.89Q68.89 14.72 68.68 14.56Q68.47 14.41 68.10 14.27Q67.74 14.12 67.16 13.98L67.16 13.98Q66.54 13.83 66.15 13.62Q65.75 13.42 65.53 13.17Q65.31 12.93 65.23 12.64Q65.15 12.35 65.15 12.03L65.15 12.03Q65.15 11.87 65.20 11.66Q65.25 11.45 65.37 11.22Q65.49 10.99 65.68 10.77Q65.88 10.55 66.17 10.37Q66.47 10.20 66.86 10.09Q67.26 9.98 67.78 9.98L67.78 9.98Q68.15 9.98 68.47 10.03Q68.80 10.08 69.07 10.15Q69.34 10.23 69.56 10.33Q69.79 10.43 69.97 10.53L69.97 10.53Z"></path></g><!----><g data-v-423bf9ae="" id="7c9bbf94-affc-49d5-ae86-f316802009ab" transform="matrix(1.0149192810058594,0,0,1.0149192810058594,96.87503814697266,-5.08447265625)" stroke="none" fill="black"><path clip-rule="evenodd" d="M50.013 94.339l-3.212-5.65c-3.533-6.275-15.461-27.395-19.184-34.215-2.695-5.105-5.996-13.551-5.996-20.446 0-15.619 12.771-28.366 28.365-28.366 15.628 0 28.393 12.747 28.393 28.366 0 6.604-3.063 15.496-5.93 20.526-4.807 8.365-19.224 34.07-19.345 34.209l-3.091 5.576zm0-81.572c-11.709 0-21.299 9.564-21.299 21.261 0 5.185 2.626 12.311 5.184 17.038 2.943 5.414 11.277 20.301 16.089 28.757 4.634-8.31 12.832-22.815 16.239-28.829 2.34-4.143 4.967-11.845 4.967-16.966 0-5.715-2.219-10.956-6.209-15.021-4.026-4.007-9.355-6.239-14.997-6.239h.026z"></path><path clip-rule="evenodd" d="M56.572 26.491l-.959-1.26 1.854-1.909c.303-.303.477-.666.477-1.085 0-.432-.174-.776-.477-1.078l-3.472-3.537a5.696 5.696 0 00-8.028 0l-3.477 3.531c-.303.302-.479.652-.479 1.084 0 .419.176.782.479 1.085l1.862 1.851.537.483-.723.601c-.598.176-1.434.414-2.328.776-1.035.415-2.824 1.317-3.48 1.977 0 0-.483 1.979-.845 3.897v.053c-.652 4.021-1.558 10.665-1.191 18.156h.353v.181c0 .479.36.834.838.834h1.979c.486 0 .903-.35.903-.834v-.181h.362s-.362-11.802 1.665-14.797V50.995s3.789 1.078 7.011 1.2l-.537-25.402v-.058h-.053c-.063-.123-.238-.303-.424-.479l-3.29-3.291c-.426-.425-.426-1.025 0-1.457l1.562-1.548c1.792-1.86 4.791-1.85 6.592 0l1.545 1.548c.422.425.422 1.032 0 1.457l-3.706 3.77c-.06.058-.119.058-.119.058l-.423 25.402c3.181-.122 7.008-1.2 7.008-1.2V36.319c2.039 2.995 1.621 14.797 1.621 14.797h.418v.181a.81.81 0 00.83.834h1.979c.482 0 .904-.35.904-.834v-.181h.361c.298-7.491-.537-14.207-1.266-18.156v-.053c-.355-1.919-.78-3.833-.78-3.833-.713-.724-2.446-1.626-3.528-2.041a9.758 9.758 0 00-1.555-.542z"></path></g><!----></svg>